<svg width="375" height="565" viewBox="0 0 375 565" fill="none" xmlns="http://www.w3.org/2000/svg">
<path d="M375 188.5C375 163.877 370.15 139.495 360.727 116.747C351.305 93.9983 337.494 73.3285 320.083 55.9175C302.672 38.5065 282.002 24.6953 259.253 15.2726C236.505 5.84982 212.123 0.999992 187.5 0.999992C162.877 0.999992 138.495 5.84982 115.747 15.2726C92.9983 24.6953 72.3285 38.5065 54.9175 55.9175C37.5065 73.3285 23.6954 93.9983 14.2726 116.747C4.84988 139.495 5.20566e-05 163.877 5.28393e-05 188.5L187.5 188.5L375 188.5Z" stroke="#BABABA"/>
<path d="M187.5 564C212.123 564 236.505 559.15 259.253 549.727C282.002 540.305 302.672 526.494 320.083 509.083C337.494 491.672 351.305 471.002 360.727 448.253C370.15 425.505 375 401.123 375 376.5C375 351.877 370.15 327.495 360.727 304.747C351.305 281.998 337.494 261.329 320.083 243.918C302.672 226.507 282.002 212.695 259.253 203.273C236.505 193.85 212.123 189 187.5 189L187.5 376.5L187.5 564Z" stroke="#BABABA"/>
</svg>
