<svg width="684" height="771" viewBox="0 0 684 771" fill="none" xmlns="http://www.w3.org/2000/svg">
<path d="M0.981656 769C213.995 769 386.676 597.077 386.676 385C386.676 172.923 213.995 1.00001 0.981689 0.999998" stroke="#BABABA"/>
<path fill-rule="evenodd" clip-rule="evenodd" d="M683.999 140.61C676.368 131.446 668.284 122.604 659.759 114.117C587.334 42.0092 489.104 1.50004 386.68 1.50002L386.18 1.50002L386.18 2.00002L386.18 386L386.18 770L386.18 770.5H386.68C489.104 770.5 587.334 729.991 659.759 657.883C668.284 649.397 676.368 640.554 683.999 631.39V629.824C676.163 639.295 667.843 648.424 659.054 657.175C586.934 728.978 489.16 769.368 387.18 769.5L387.18 386L387.18 2.50034C489.16 2.63196 586.934 43.0223 659.054 114.825C667.843 123.576 676.163 132.705 683.999 142.176V140.61Z" fill="#BABABA"/>
</svg>
