<svg width="148" height="18" viewBox="0 0 148 18" fill="none" xmlns="http://www.w3.org/2000/svg">
<mask id="path-1-outside-1" maskUnits="userSpaceOnUse" x="0" y="0" width="148" height="18" fill="black">
<rect fill="white" width="148" height="18"/>
<path d="M6.88849 7.6943H13.6478C14.2975 7.6943 14.7536 7.56995 15.0163 7.32124C15.2927 7.05872 15.431 6.74093 15.431 6.36788V6.34715C15.431 5.98791 15.2996 5.68394 15.037 5.43523C14.7744 5.17271 14.3113 5.04145 13.6478 5.04145H6.88849V7.6943ZM6.88849 16.7098H1V1.29016H15.0163C17.2694 1.29016 18.9143 1.63558 19.951 2.32642C20.9877 3.01727 21.5061 3.99136 21.5061 5.2487V5.47668C21.5061 6.04318 21.3955 6.52677 21.1743 6.92746C20.967 7.32815 20.7043 7.66667 20.3864 7.943C20.0685 8.20553 19.7298 8.41969 19.3704 8.58549C19.011 8.73748 18.6862 8.84801 18.3959 8.9171C19.3497 9.13817 20.1169 9.55958 20.6974 10.1813C21.278 10.7893 21.5683 11.5907 21.5683 12.5855V14.8653C21.5683 15.4041 21.5959 15.7979 21.6512 16.0466C21.7203 16.2815 21.7894 16.468 21.8585 16.6062V16.7098H15.8456C15.7765 16.6269 15.7281 16.5302 15.7005 16.4197C15.6729 16.2953 15.659 16.1226 15.659 15.9016V14.0984C15.659 13.2142 15.424 12.5509 14.9541 12.1088C14.4979 11.6528 13.6893 11.4249 12.5282 11.4249H6.88849V16.7098Z"/>
<path d="M41.0855 1.29016V5.06218H29.8269V6.98964H40.8575V10.7409H29.8269V12.8549H41.2514V16.7098H24.0214V1.29016H41.0855Z"/>
<path d="M43.6169 1.29016H49.5261V8.19171C49.5261 8.66148 49.5883 9.14508 49.7127 9.64249C49.8371 10.1261 50.0721 10.5682 50.4177 10.9689C50.7771 11.3696 51.2609 11.7012 51.8691 11.9637C52.4773 12.2124 53.2721 12.3368 54.2535 12.3368C55.2073 12.3368 55.9883 12.2124 56.5965 11.9637C57.2185 11.7012 57.7023 11.3696 58.0478 10.9689C58.3934 10.5682 58.6284 10.1261 58.7528 9.64249C58.891 9.14508 58.9601 8.66148 58.9601 8.19171V1.29016H64.8486V8.64767C64.8486 9.14508 64.8003 9.69775 64.7035 10.3057C64.6067 10.8998 64.4201 11.5078 64.1437 12.1295C63.881 12.7513 63.5147 13.3523 63.0448 13.9326C62.5748 14.4991 61.9597 15.0104 61.1994 15.4663C60.453 15.9223 59.5407 16.2884 58.4625 16.5648C57.3982 16.8273 56.1403 16.9585 54.6889 16.9585H53.8595C52.3667 16.9585 51.0743 16.8273 49.9823 16.5648C48.8903 16.2884 47.9641 15.9223 47.2039 15.4663C46.4575 15.0104 45.8493 14.4991 45.3793 13.9326C44.9093 13.3523 44.543 12.7513 44.2804 12.1295C44.0178 11.5078 43.8381 10.8998 43.7413 10.3057C43.6584 9.69775 43.6169 9.14508 43.6169 8.64767V1.29016Z"/>
<path d="M74.086 1.29016L83.0432 10.057V1.29016H88.8902V16.7098H83.0017L73.3396 7.36269V16.7098H67.4926V1.29016H74.086Z"/>
<path d="M97.5763 16.7098H91.7086V1.29016H97.5763V16.7098Z"/>
<path d="M112.068 1C113.726 1 115.157 1.12435 116.359 1.37306C117.562 1.60794 118.578 1.93264 119.407 2.34715C120.237 2.74784 120.907 3.21071 121.419 3.73575C121.93 4.26079 122.324 4.80656 122.6 5.37306C122.877 5.93955 123.064 6.50604 123.16 7.07254C123.257 7.63903 123.305 8.16407 123.305 8.64767V9.26943C123.305 9.75302 123.257 10.2781 123.16 10.8446C123.077 11.4111 122.891 11.9845 122.6 12.5648C122.324 13.1313 121.93 13.6839 121.419 14.2228C120.921 14.7478 120.251 15.2176 119.407 15.6321C118.578 16.0466 117.562 16.3782 116.359 16.6269C115.157 16.8756 113.726 17 112.068 17H111.134C109.476 17 108.038 16.8756 106.822 16.6269C105.619 16.3782 104.603 16.0466 103.774 15.6321C102.945 15.2176 102.274 14.7478 101.763 14.2228C101.251 13.6839 100.857 13.1313 100.581 12.5648C100.304 11.9845 100.118 11.4111 100.021 10.8446C99.9242 10.2781 99.8759 9.75302 99.8759 9.26943V8.64767C99.8759 8.16407 99.9173 7.63903 100 7.07254C100.097 6.50604 100.284 5.93955 100.56 5.37306C100.85 4.80656 101.251 4.26079 101.763 3.73575C102.274 3.21071 102.945 2.74784 103.774 2.34715C104.603 1.93264 105.619 1.60794 106.822 1.37306C108.024 1.12435 109.462 1 111.134 1H112.068ZM117.21 8.79274C117.21 8.37824 117.127 7.95682 116.961 7.5285C116.809 7.10017 116.525 6.7133 116.111 6.36788C115.696 6.00864 115.122 5.71848 114.39 5.49741C113.671 5.26252 112.738 5.14508 111.591 5.14508C110.43 5.14508 109.483 5.26252 108.75 5.49741C108.017 5.71848 107.444 6.00864 107.029 6.36788C106.628 6.7133 106.352 7.10017 106.2 7.5285C106.048 7.95682 105.972 8.37824 105.972 8.79274V9.04145C105.972 9.44214 106.048 9.87047 106.2 10.3264C106.366 10.7686 106.656 11.1762 107.071 11.5492C107.485 11.9223 108.052 12.2332 108.771 12.4819C109.503 12.7168 110.443 12.8342 111.591 12.8342C112.724 12.8342 113.657 12.7168 114.39 12.4819C115.122 12.247 115.696 11.9499 116.111 11.5907C116.525 11.2176 116.809 10.81 116.961 10.3679C117.127 9.92573 117.21 9.49741 117.21 9.0829V8.79274Z"/>
<path d="M132.196 1.29016L141.153 10.057V1.29016H147V16.7098H141.112L131.449 7.36269V16.7098H125.602V1.29016H132.196Z"/>
</mask>
<path d="M6.88849 7.6943H13.6478C14.2975 7.6943 14.7536 7.56995 15.0163 7.32124C15.2927 7.05872 15.431 6.74093 15.431 6.36788V6.34715C15.431 5.98791 15.2996 5.68394 15.037 5.43523C14.7744 5.17271 14.3113 5.04145 13.6478 5.04145H6.88849V7.6943ZM6.88849 16.7098H1V1.29016H15.0163C17.2694 1.29016 18.9143 1.63558 19.951 2.32642C20.9877 3.01727 21.5061 3.99136 21.5061 5.2487V5.47668C21.5061 6.04318 21.3955 6.52677 21.1743 6.92746C20.967 7.32815 20.7043 7.66667 20.3864 7.943C20.0685 8.20553 19.7298 8.41969 19.3704 8.58549C19.011 8.73748 18.6862 8.84801 18.3959 8.9171C19.3497 9.13817 20.1169 9.55958 20.6974 10.1813C21.278 10.7893 21.5683 11.5907 21.5683 12.5855V14.8653C21.5683 15.4041 21.5959 15.7979 21.6512 16.0466C21.7203 16.2815 21.7894 16.468 21.8585 16.6062V16.7098H15.8456C15.7765 16.6269 15.7281 16.5302 15.7005 16.4197C15.6729 16.2953 15.659 16.1226 15.659 15.9016V14.0984C15.659 13.2142 15.424 12.5509 14.9541 12.1088C14.4979 11.6528 13.6893 11.4249 12.5282 11.4249H6.88849V16.7098Z" fill="black"/>
<path d="M41.0855 1.29016V5.06218H29.8269V6.98964H40.8575V10.7409H29.8269V12.8549H41.2514V16.7098H24.0214V1.29016H41.0855Z" fill="black"/>
<path d="M43.6169 1.29016H49.5261V8.19171C49.5261 8.66148 49.5883 9.14508 49.7127 9.64249C49.8371 10.1261 50.0721 10.5682 50.4177 10.9689C50.7771 11.3696 51.2609 11.7012 51.8691 11.9637C52.4773 12.2124 53.2721 12.3368 54.2535 12.3368C55.2073 12.3368 55.9883 12.2124 56.5965 11.9637C57.2185 11.7012 57.7023 11.3696 58.0478 10.9689C58.3934 10.5682 58.6284 10.1261 58.7528 9.64249C58.891 9.14508 58.9601 8.66148 58.9601 8.19171V1.29016H64.8486V8.64767C64.8486 9.14508 64.8003 9.69775 64.7035 10.3057C64.6067 10.8998 64.4201 11.5078 64.1437 12.1295C63.881 12.7513 63.5147 13.3523 63.0448 13.9326C62.5748 14.4991 61.9597 15.0104 61.1994 15.4663C60.453 15.9223 59.5407 16.2884 58.4625 16.5648C57.3982 16.8273 56.1403 16.9585 54.6889 16.9585H53.8595C52.3667 16.9585 51.0743 16.8273 49.9823 16.5648C48.8903 16.2884 47.9641 15.9223 47.2039 15.4663C46.4575 15.0104 45.8493 14.4991 45.3793 13.9326C44.9093 13.3523 44.543 12.7513 44.2804 12.1295C44.0178 11.5078 43.8381 10.8998 43.7413 10.3057C43.6584 9.69775 43.6169 9.14508 43.6169 8.64767V1.29016Z" fill="black"/>
<path d="M74.086 1.29016L83.0432 10.057V1.29016H88.8902V16.7098H83.0017L73.3396 7.36269V16.7098H67.4926V1.29016H74.086Z" fill="black"/>
<path d="M97.5763 16.7098H91.7086V1.29016H97.5763V16.7098Z" fill="black"/>
<path d="M112.068 1C113.726 1 115.157 1.12435 116.359 1.37306C117.562 1.60794 118.578 1.93264 119.407 2.34715C120.237 2.74784 120.907 3.21071 121.419 3.73575C121.93 4.26079 122.324 4.80656 122.6 5.37306C122.877 5.93955 123.064 6.50604 123.16 7.07254C123.257 7.63903 123.305 8.16407 123.305 8.64767V9.26943C123.305 9.75302 123.257 10.2781 123.16 10.8446C123.077 11.4111 122.891 11.9845 122.6 12.5648C122.324 13.1313 121.93 13.6839 121.419 14.2228C120.921 14.7478 120.251 15.2176 119.407 15.6321C118.578 16.0466 117.562 16.3782 116.359 16.6269C115.157 16.8756 113.726 17 112.068 17H111.134C109.476 17 108.038 16.8756 106.822 16.6269C105.619 16.3782 104.603 16.0466 103.774 15.6321C102.945 15.2176 102.274 14.7478 101.763 14.2228C101.251 13.6839 100.857 13.1313 100.581 12.5648C100.304 11.9845 100.118 11.4111 100.021 10.8446C99.9242 10.2781 99.8759 9.75302 99.8759 9.26943V8.64767C99.8759 8.16407 99.9173 7.63903 100 7.07254C100.097 6.50604 100.284 5.93955 100.56 5.37306C100.85 4.80656 101.251 4.26079 101.763 3.73575C102.274 3.21071 102.945 2.74784 103.774 2.34715C104.603 1.93264 105.619 1.60794 106.822 1.37306C108.024 1.12435 109.462 1 111.134 1H112.068ZM117.21 8.79274C117.21 8.37824 117.127 7.95682 116.961 7.5285C116.809 7.10017 116.525 6.7133 116.111 6.36788C115.696 6.00864 115.122 5.71848 114.39 5.49741C113.671 5.26252 112.738 5.14508 111.591 5.14508C110.43 5.14508 109.483 5.26252 108.75 5.49741C108.017 5.71848 107.444 6.00864 107.029 6.36788C106.628 6.7133 106.352 7.10017 106.2 7.5285C106.048 7.95682 105.972 8.37824 105.972 8.79274V9.04145C105.972 9.44214 106.048 9.87047 106.2 10.3264C106.366 10.7686 106.656 11.1762 107.071 11.5492C107.485 11.9223 108.052 12.2332 108.771 12.4819C109.503 12.7168 110.443 12.8342 111.591 12.8342C112.724 12.8342 113.657 12.7168 114.39 12.4819C115.122 12.247 115.696 11.9499 116.111 11.5907C116.525 11.2176 116.809 10.81 116.961 10.3679C117.127 9.92573 117.21 9.49741 117.21 9.0829V8.79274Z" fill="black"/>
<path d="M132.196 1.29016L141.153 10.057V1.29016H147V16.7098H141.112L131.449 7.36269V16.7098H125.602V1.29016H132.196Z" fill="black"/>
<path d="M6.88849 7.6943H13.6478C14.2975 7.6943 14.7536 7.56995 15.0163 7.32124C15.2927 7.05872 15.431 6.74093 15.431 6.36788V6.34715C15.431 5.98791 15.2996 5.68394 15.037 5.43523C14.7744 5.17271 14.3113 5.04145 13.6478 5.04145H6.88849V7.6943ZM6.88849 16.7098H1V1.29016H15.0163C17.2694 1.29016 18.9143 1.63558 19.951 2.32642C20.9877 3.01727 21.5061 3.99136 21.5061 5.2487V5.47668C21.5061 6.04318 21.3955 6.52677 21.1743 6.92746C20.967 7.32815 20.7043 7.66667 20.3864 7.943C20.0685 8.20553 19.7298 8.41969 19.3704 8.58549C19.011 8.73748 18.6862 8.84801 18.3959 8.9171C19.3497 9.13817 20.1169 9.55958 20.6974 10.1813C21.278 10.7893 21.5683 11.5907 21.5683 12.5855V14.8653C21.5683 15.4041 21.5959 15.7979 21.6512 16.0466C21.7203 16.2815 21.7894 16.468 21.8585 16.6062V16.7098H15.8456C15.7765 16.6269 15.7281 16.5302 15.7005 16.4197C15.6729 16.2953 15.659 16.1226 15.659 15.9016V14.0984C15.659 13.2142 15.424 12.5509 14.9541 12.1088C14.4979 11.6528 13.6893 11.4249 12.5282 11.4249H6.88849V16.7098Z" stroke="black" stroke-width="0.6" mask="url(#path-1-outside-1)"/>
<path d="M41.0855 1.29016V5.06218H29.8269V6.98964H40.8575V10.7409H29.8269V12.8549H41.2514V16.7098H24.0214V1.29016H41.0855Z" stroke="black" stroke-width="0.6" mask="url(#path-1-outside-1)"/>
<path d="M43.6169 1.29016H49.5261V8.19171C49.5261 8.66148 49.5883 9.14508 49.7127 9.64249C49.8371 10.1261 50.0721 10.5682 50.4177 10.9689C50.7771 11.3696 51.2609 11.7012 51.8691 11.9637C52.4773 12.2124 53.2721 12.3368 54.2535 12.3368C55.2073 12.3368 55.9883 12.2124 56.5965 11.9637C57.2185 11.7012 57.7023 11.3696 58.0478 10.9689C58.3934 10.5682 58.6284 10.1261 58.7528 9.64249C58.891 9.14508 58.9601 8.66148 58.9601 8.19171V1.29016H64.8486V8.64767C64.8486 9.14508 64.8003 9.69775 64.7035 10.3057C64.6067 10.8998 64.4201 11.5078 64.1437 12.1295C63.881 12.7513 63.5147 13.3523 63.0448 13.9326C62.5748 14.4991 61.9597 15.0104 61.1994 15.4663C60.453 15.9223 59.5407 16.2884 58.4625 16.5648C57.3982 16.8273 56.1403 16.9585 54.6889 16.9585H53.8595C52.3667 16.9585 51.0743 16.8273 49.9823 16.5648C48.8903 16.2884 47.9641 15.9223 47.2039 15.4663C46.4575 15.0104 45.8493 14.4991 45.3793 13.9326C44.9093 13.3523 44.543 12.7513 44.2804 12.1295C44.0178 11.5078 43.8381 10.8998 43.7413 10.3057C43.6584 9.69775 43.6169 9.14508 43.6169 8.64767V1.29016Z" stroke="black" stroke-width="0.6" mask="url(#path-1-outside-1)"/>
<path d="M74.086 1.29016L83.0432 10.057V1.29016H88.8902V16.7098H83.0017L73.3396 7.36269V16.7098H67.4926V1.29016H74.086Z" stroke="black" stroke-width="0.6" mask="url(#path-1-outside-1)"/>
<path d="M97.5763 16.7098H91.7086V1.29016H97.5763V16.7098Z" stroke="black" stroke-width="0.6" mask="url(#path-1-outside-1)"/>
<path d="M112.068 1C113.726 1 115.157 1.12435 116.359 1.37306C117.562 1.60794 118.578 1.93264 119.407 2.34715C120.237 2.74784 120.907 3.21071 121.419 3.73575C121.93 4.26079 122.324 4.80656 122.6 5.37306C122.877 5.93955 123.064 6.50604 123.16 7.07254C123.257 7.63903 123.305 8.16407 123.305 8.64767V9.26943C123.305 9.75302 123.257 10.2781 123.16 10.8446C123.077 11.4111 122.891 11.9845 122.6 12.5648C122.324 13.1313 121.93 13.6839 121.419 14.2228C120.921 14.7478 120.251 15.2176 119.407 15.6321C118.578 16.0466 117.562 16.3782 116.359 16.6269C115.157 16.8756 113.726 17 112.068 17H111.134C109.476 17 108.038 16.8756 106.822 16.6269C105.619 16.3782 104.603 16.0466 103.774 15.6321C102.945 15.2176 102.274 14.7478 101.763 14.2228C101.251 13.6839 100.857 13.1313 100.581 12.5648C100.304 11.9845 100.118 11.4111 100.021 10.8446C99.9242 10.2781 99.8759 9.75302 99.8759 9.26943V8.64767C99.8759 8.16407 99.9173 7.63903 100 7.07254C100.097 6.50604 100.284 5.93955 100.56 5.37306C100.85 4.80656 101.251 4.26079 101.763 3.73575C102.274 3.21071 102.945 2.74784 103.774 2.34715C104.603 1.93264 105.619 1.60794 106.822 1.37306C108.024 1.12435 109.462 1 111.134 1H112.068ZM117.21 8.79274C117.21 8.37824 117.127 7.95682 116.961 7.5285C116.809 7.10017 116.525 6.7133 116.111 6.36788C115.696 6.00864 115.122 5.71848 114.39 5.49741C113.671 5.26252 112.738 5.14508 111.591 5.14508C110.43 5.14508 109.483 5.26252 108.75 5.49741C108.017 5.71848 107.444 6.00864 107.029 6.36788C106.628 6.7133 106.352 7.10017 106.2 7.5285C106.048 7.95682 105.972 8.37824 105.972 8.79274V9.04145C105.972 9.44214 106.048 9.87047 106.2 10.3264C106.366 10.7686 106.656 11.1762 107.071 11.5492C107.485 11.9223 108.052 12.2332 108.771 12.4819C109.503 12.7168 110.443 12.8342 111.591 12.8342C112.724 12.8342 113.657 12.7168 114.39 12.4819C115.122 12.247 115.696 11.9499 116.111 11.5907C116.525 11.2176 116.809 10.81 116.961 10.3679C117.127 9.92573 117.21 9.49741 117.21 9.0829V8.79274Z" stroke="black" stroke-width="0.6" mask="url(#path-1-outside-1)"/>
<path d="M132.196 1.29016L141.153 10.057V1.29016H147V16.7098H141.112L131.449 7.36269V16.7098H125.602V1.29016H132.196Z" stroke="black" stroke-width="0.6" mask="url(#path-1-outside-1)"/>
</svg>
